<svg id="Layer_1" data-name="Layer 1" xmlns="http://www.w3.org/2000/svg" xmlns:xlink="http://www.w3.org/1999/xlink" viewBox="0 0 45 45"><defs><radialGradient id="radial-gradient" cx="22.5" cy="22.5" r="22.5" gradientUnits="userSpaceOnUse"><stop offset="0" stop-color="#fff"/><stop offset="0.42" stop-color="#fdfefd"/><stop offset="0.57" stop-color="#f6fbf8"/><stop offset="0.68" stop-color="#ebf6ed"/><stop offset="0.77" stop-color="#daefdf"/><stop offset="0.84" stop-color="#c4e6cc"/><stop offset="0.91" stop-color="#a8dbb4"/><stop offset="0.97" stop-color="#89cd99"/><stop offset="1" stop-color="#73c486"/></radialGradient><radialGradient id="radial-gradient-2" cx="22.95" cy="21.96" r="14.82" gradientTransform="translate(0 -7.48) scale(1 1.34)" gradientUnits="userSpaceOnUse"><stop offset="0" stop-color="#fff"/><stop offset="0.29" stop-color="#fefdfc"/><stop offset="0.49" stop-color="#fdf7f3"/><stop offset="0.66" stop-color="#faece4"/><stop offset="0.81" stop-color="#f5ddcf"/><stop offset="0.96" stop-color="#f0c9b3"/><stop offset="1" stop-color="#eec2a9"/></radialGradient><radialGradient id="radial-gradient-3" cx="31.89" cy="24.24" r="10.74" gradientTransform="translate(0 2.08) scale(1 0.91)" gradientUnits="userSpaceOnUse"><stop offset="0" stop-color="#fff"/><stop offset="0.37" stop-color="#fdfdfd"/><stop offset="0.51" stop-color="#f6f6f6"/><stop offset="0.6" stop-color="#ebebeb"/><stop offset="0.68" stop-color="#dadada"/><stop offset="0.75" stop-color="#c4c4c4"/><stop offset="0.8" stop-color="#a8a8a8"/><stop offset="0.86" stop-color="#888"/><stop offset="0.91" stop-color="#626262"/><stop offset="0.95" stop-color="#373737"/><stop offset="0.99" stop-color="#090909"/><stop offset="1"/></radialGradient><radialGradient id="radial-gradient-4" cx="31.66" cy="20.23" r="3.5" gradientTransform="translate(0 -6.89) scale(1 1.34)" xlink:href="#radial-gradient-2"/><radialGradient id="radial-gradient-5" cx="31.89" cy="24.24" r="10.74" gradientTransform="matrix(-1, 0, 0, 0.91, 45.91, 2.08)" xlink:href="#radial-gradient-3"/><radialGradient id="radial-gradient-6" cx="31.66" cy="20.23" r="3.5" gradientTransform="matrix(-1, 0, 0, 1.34, 45.91, -6.89)" xlink:href="#radial-gradient-2"/></defs><rect width="45" height="45" style="fill:url(#radial-gradient)"/><path d="M37.12,27.06A13.83,13.83,0,0,1,23,40.83,13.83,13.83,0,0,1,8.79,27.06c0-7.82,6.34-24,14.16-24S37.12,19.24,37.12,27.06Z" style="stroke:#231f20;stroke-miterlimit:10;stroke-width:0.5px;fill:url(#radial-gradient-2)"/><path d="M31.18,27.54a5,5,0,0,1-4.8-4.8,3.33,3.33,0,0,1,.09-.78c.2.08,3.34,1.1,10.38-1a4,4,0,0,1,.52,1.58C37.69,25.43,34.12,27.79,31.18,27.54Z" style="stroke:#231f20;stroke-miterlimit:10;stroke-width:0.5px;fill:url(#radial-gradient-3)"/><circle cx="32.4" cy="23.13" r="1.71" style="fill:#231f20;stroke:#231f20;stroke-miterlimit:10;stroke-width:0.5px"/><path d="M26.47,22h0" style="fill:none;stroke:#231f20;stroke-linecap:round;stroke-miterlimit:10;stroke-width:0.5px"/><path d="M36.85,20.92c-7,2.14-10.18,1.12-10.38,1,.46-2.24,2.88-3.77,5.26-3.77A5.93,5.93,0,0,1,36.85,20.92Z" style="stroke:#231f20;stroke-miterlimit:10;stroke-width:0.5px;fill:url(#radial-gradient-4)"/><path d="M14.73,27.54a5,5,0,0,0,4.8-4.8,3.33,3.33,0,0,0-.09-.78c-.2.08-3.34,1.1-10.38-1a4,4,0,0,0-.52,1.58C8.22,25.43,11.79,27.79,14.73,27.54Z" style="stroke:#231f20;stroke-miterlimit:10;stroke-width:0.5px;fill:url(#radial-gradient-5)"/><circle cx="13.5" cy="23.13" r="1.71" style="fill:#231f20;stroke:#231f20;stroke-miterlimit:10;stroke-width:0.5px"/><path d="M9.06,20.92c7,2.14,10.18,1.12,10.38,1-.46-2.24-2.88-3.77-5.26-3.77A5.93,5.93,0,0,0,9.06,20.92Z" style="stroke:#231f20;stroke-miterlimit:10;stroke-width:0.5px;fill:url(#radial-gradient-6)"/><path d="M25.73,33.86a3.41,3.41,0,0,1-5.69-.2,8.67,8.67,0,0,0,3.14.56A8.87,8.87,0,0,0,25.73,33.86Z" style="fill:#ed1c24;stroke:#231f20;stroke-linecap:round;stroke-miterlimit:10;stroke-width:0.5px"/></svg>